# xmcd
#
# Track frame offsets:
#	150
#	14240
#	26658
#	39504
#	53037
#	66683
#	80265
#	92463
#	104928
#	116919
#
# Disc length: 1785 seconds
#
# Revision: 0
# Processed by: cddbd v1.5.1PL0 Copyright (c) Steve Scherf et al.
# Submitted via: dBpowerAMP V4.0
#
DISCID=8e06f70a
DTITLE=Laberinto - A Bailar La Cumbia
DYEAR=1900
DGENRE=
TTITLE0=La Negra Guapachosa
TTITLE1=El Esquimal
TTITLE2=Te Dije Adios
TTITLE3=La Colita (La Colota)
TTITLE4=La Sopa
TTITLE5=Che Che Cole
TTITLE6=Maldito Pillo
TTITLE7=Al Ritmo de La Costa
TTITLE8=El Baile del Muñeco
TTITLE9=Zapato de Bailador
EXTD=ra
EXTT0=
EXTT1=
EXTT2=
EXTT3=
EXTT4=
EXTT5=
EXTT6=
EXTT7=
EXTT8=
EXTT9=
PLAYORDER=
